<svg width="76" height="76" viewBox="0 0 76 76" fill="none" xmlns="http://www.w3.org/2000/svg">
<g id="coins_10464505 1">
<path id="Vector" d="M54.4766 47.5119V40.0959L48.4441 43.5753V50.9972L54.4766 47.5119Z" fill="white"/>
<path id="Vector_2" d="M54.4766 28.4881L48.2184 24.8722L38 30.7741L27.7816 24.8722L21.5234 28.4881V35.0609L31.9141 41.0638V53.5147L38 57.0297L44.0859 53.5147V41.0638L54.4766 35.0609V28.4881Z" fill="white"/>
<path id="Vector_3" d="M64.9266 29.0284V22.4556L58.6684 18.8397L52.5766 22.3547L58.8347 25.9706V32.5434L64.9266 29.0284Z" fill="white"/>
<path id="Vector_4" d="M17.1653 32.5434V25.9706L23.4234 22.3547L17.3316 18.8397L11.0734 22.4556V29.0284L17.1653 32.5434Z" fill="white"/>
<path id="Vector_5" d="M21.5234 47.5119L27.5559 50.9972V43.5753L21.5234 40.0959V47.5119Z" fill="white"/>
<path id="Vector_6" d="M44.0859 58.5497L38 62.0647L31.9141 58.5497V65.5797L38 69.0947L44.0859 65.5797V58.5497Z" fill="white"/>
<path id="Vector_7" d="M43.8603 22.3547L38 18.9703L32.1397 22.3547L38 25.7391L43.8603 22.3547Z" fill="white"/>
<path id="Vector_8" d="M58.8347 37.5784V50.0294L48.4441 56.0322V63.0622L64.9266 53.5444V34.0634L58.8347 37.5784Z" fill="white"/>
<path id="Vector_9" d="M27.5559 56.0322L17.1653 50.0294V37.5784L11.0734 34.0634V53.5444L27.5559 63.0622V56.0322Z" fill="white"/>
<path id="Vector_10" d="M27.7816 19.8372L38 13.9413L48.2184 19.8372L54.3103 16.3222L38 6.90533L21.6897 16.3222L27.7816 19.8372Z" fill="white"/>
</g>
</svg>
